<svg xmlns="http://www.w3.org/2000/svg" viewBox="0 0 270.91 94.06"><defs><style>.cls-1{fill:#6bbaa7;}.cls-2{fill:#fba100;}.cls-3{fill:#6c648b;}</style></defs><title>logo</title><g id="Слой_2" data-name="Слой 2"><g id="Слой_1-2" data-name="Слой 1"><path class="cls-1" d="M60.12,93.65H54.17V55.38l-9.52.09V50.9l15.47-1.62Z"/><path class="cls-2" d="M75.35,82.67a11.91,11.91,0,0,1,2.59-7.88,9.62,9.62,0,0,1,14.12,0,11.85,11.85,0,0,1,2.59,7.89v.44A11.86,11.86,0,0,1,92.07,91,9.66,9.66,0,0,1,78,91a11.81,11.81,0,0,1-2.6-7.88Zm3.93.44a10.27,10.27,0,0,0,1.44,5.66,5.22,5.22,0,0,0,8.56,0,10.19,10.19,0,0,0,1.45-5.66v-.44A10.19,10.19,0,0,0,89.27,77,4.81,4.81,0,0,0,85,74.78,4.74,4.74,0,0,0,80.72,77a10.27,10.27,0,0,0-1.44,5.64Z"/><path class="cls-2" d="M103,72.09l.28,3.21a7.89,7.89,0,0,1,2.7-2.66,7.18,7.18,0,0,1,3.69-.94,7,7,0,0,1,5.4,2c1.28,1.36,1.91,3.46,1.91,6.3V93.65H113V80.12a5.86,5.86,0,0,0-1.12-4,4.52,4.52,0,0,0-3.44-1.2,6.05,6.05,0,0,0-3.08.73,5.23,5.23,0,0,0-2,2v16H99.46V72.09Z"/><path class="cls-2" d="M126.88,93.65H123V62.57h3.92Z"/><path class="cls-2" d="M137.16,66.58h-3.92v-4h3.92Zm0,27.07h-3.92V72.09h3.92Z"/><path class="cls-2" d="M146.7,72.09,147,75.3a7.89,7.89,0,0,1,2.7-2.66,7.2,7.2,0,0,1,3.7-.94,7,7,0,0,1,5.39,2q1.92,2,1.92,6.3V93.65h-3.93V80.12c0-1.9-.37-3.25-1.12-4a4.51,4.51,0,0,0-3.44-1.2,6.05,6.05,0,0,0-3.08.73,5.23,5.23,0,0,0-2,2v16H143.2V72.09Z"/><path class="cls-2" d="M175.31,94.06a9.09,9.09,0,0,1-7.24-3,11.41,11.41,0,0,1-2.6-7.81v-.88a11.18,11.18,0,0,1,2.68-7.68,8.39,8.39,0,0,1,6.54-3q4.32,0,6.48,2.68a11.1,11.1,0,0,1,2.16,7.15v2.08H169.55l-.06.1A8.92,8.92,0,0,0,170.92,89a5,5,0,0,0,4.39,2,9.82,9.82,0,0,0,3.49-.57,7.8,7.8,0,0,0,2.58-1.57l1.53,2.55a9.29,9.29,0,0,1-3,1.89A12.19,12.19,0,0,1,175.31,94.06Zm-.62-19.28a4.27,4.27,0,0,0-3.4,1.59,7.5,7.5,0,0,0-1.64,4l0,.1h9.72V80.2a6.26,6.26,0,0,0-1.16-3.88A4.14,4.14,0,0,0,174.69,74.78Z"/><path class="cls-3" d="M191.44,90.58h12.45v3.07H186.76V90.9l11.65-15.7H186.9V72.09h16.31v2.67Z"/><path class="cls-3" d="M221.5,93.65c-.14-.66-.24-1.23-.31-1.73a10.72,10.72,0,0,1-.13-1.5A9.2,9.2,0,0,1,218.2,93a7.29,7.29,0,0,1-3.79,1,7,7,0,0,1-5.13-1.72,6.32,6.32,0,0,1-1.77-4.75,5.58,5.58,0,0,1,2.5-4.83A11.71,11.71,0,0,1,216.8,81h4.26V78.89a4,4,0,0,0-1.16-3,4.52,4.52,0,0,0-3.26-1.11,4.72,4.72,0,0,0-3.09,1A2.89,2.89,0,0,0,212.37,78l-3.72,0,0-.12a5.16,5.16,0,0,1,2.2-4.3,9.14,9.14,0,0,1,6.05-2,8.9,8.9,0,0,1,5.89,1.86A6.59,6.59,0,0,1,225,78.93V89.3a20,20,0,0,0,.12,2.23,11.74,11.74,0,0,0,.44,2.12ZM215,90.78a7,7,0,0,0,3.85-1.1,5.25,5.25,0,0,0,2.23-2.51v-3.5h-4.4a5.76,5.76,0,0,0-3.8,1.19,3.57,3.57,0,0,0-1.42,2.81,3,3,0,0,0,.89,2.27A3.75,3.75,0,0,0,215,90.78Z"/><path class="cls-3" d="M234.92,66.58H231v-4h3.92Zm0,27.07H231V72.09h3.92Z"/><path class="cls-3" d="M244.46,72.09l.28,2.83a7.46,7.46,0,0,1,2.68-2.38,8.09,8.09,0,0,1,3.77-.84,6.7,6.7,0,0,1,3.7,1,6.05,6.05,0,0,1,2.32,3,8,8,0,0,1,2.7-2.92,7.07,7.07,0,0,1,3.89-1.06A6.44,6.44,0,0,1,269,74c1.28,1.5,1.91,3.77,1.91,6.8V93.65H267V80.72c0-2.13-.37-3.63-1.1-4.51a4,4,0,0,0-3.26-1.33,4.17,4.17,0,0,0-3.26,1.4,6,6,0,0,0-1.46,3.52V93.65h-4V80.72a7.05,7.05,0,0,0-1.12-4.43,3.9,3.9,0,0,0-3.24-1.41,5.42,5.42,0,0,0-2.95.74,4.73,4.73,0,0,0-1.77,2.07v16H241V72.09Z"/><path class="cls-1" d="M31.79,58.55a2.28,2.28,0,0,1-2.27-2.09c-.77-9,2.91-16.93,9.85-21.27,7.1-4.46,16.44-4.31,24.35.39a2.28,2.28,0,0,1-2.33,3.93c-6.54-3.88-13.86-4-19.6-.45-5.53,3.47-8.35,9.67-7.72,17A2.28,2.28,0,0,1,32,58.54Z"/><path class="cls-1" d="M17.8,55.92a2.28,2.28,0,0,1-2.27-2.09c-1.15-13.4,4.33-25.26,14.64-31.72,10.59-6.64,24.51-6.4,36.34.62a2.28,2.28,0,0,1-2.33,3.93c-10.51-6.24-22.31-6.5-31.59-.68-9,5.62-13.52,15.63-12.51,27.46A2.29,2.29,0,0,1,18,55.91Z"/><path class="cls-1" d="M2.49,55.88A2.28,2.28,0,0,1,.22,53.79C-1.46,34.06,6.57,16.62,21.72,7.13A47.43,47.43,0,0,1,47.1,0,55.68,55.68,0,0,1,75.2,8.08,2.28,2.28,0,0,1,72.87,12C56.68,2.39,38.47,2,24.14,11,10.27,19.69,3.21,35.14,4.77,53.4a2.28,2.28,0,0,1-2.08,2.47Z"/></g></g></svg>